<svg width="174px" height="42px" viewBox="0 0 174 42" version="1.1" xmlns="http://www.w3.org/2000/svg" xmlns:xlink="http://www.w3.org/1999/xlink">
 <!-- Generator: Sketch 52.6 (67491) - http://www.bohemiancoding.com/sketch -->
 <title>
  CarDekho-Logo
 </title>
 <desc>
  Created with Sketch.
 </desc>
 <g id="Website" stroke="none" stroke-width="1" fill="none" fill-rule="evenodd">
  <g id="Desktop-header-footer" transform="translate(-90.000000, -12.000000)">
   <g id="Header-web-Copy-11">
    <g id="CarDekho-Logo" transform="translate(90.000000, 12.000000)">
     <g id="Group" fill="#F75D34">
      <path d="M40.4240283,19.9717314 C40.4240283,29.9222615 33.2155477,38.204947 23.7314488,39.8586572 L21.540636,27.4204947 C25.0883392,26.7985866 27.8021201,23.6890459 27.8021201,19.9575972 C27.8021201,16.2261484 25.1024735,13.1166078 21.540636,12.4946996 L23.7314488,0.0565371025 C33.2155477,1.7385159 40.4240283,10.0212014 40.4240283,19.9717314 Z" id="Path">
      </path>
      <path d="M18.9116608,27.434629 L16.7208481,39.8727915 C7.23674912,38.204947 0.0282685512,29.9363958 0.0282685512,19.9858657 C0.0282685512,10.0353357 7.23674912,1.75265018 16.7208481,0.0989399293 L18.9116608,12.5371025 C15.3639576,13.1590106 12.6501767,16.2685512 12.6501767,20 C12.664311,23.7031802 15.3639576,26.8127208 18.9116608,27.434629 Z" id="Path">
      </path>
     </g>
     <g id="Group-23" transform="translate(49.000000, 10.000000)" fill="#24282C">
      <path d="M0.621479816,10.2606275 C0.621479816,4.55038013 4.8617625,0.18288896 10.7133526,0.18288896 C14.2327872,0.18288896 17.3281936,1.93553914 19.0243067,4.67758861 L15.193918,6.89666988 C14.3317272,5.39843666 12.6780169,4.5079773 10.7133526,4.5079773 C7.27872363,4.5079773 5.05964236,6.81186423 5.05964236,10.2747618 C5.05964236,13.7376593 7.27872363,16.0415462 10.7133526,16.0415462 C12.6780169,16.0415462 14.37413,15.1510868 15.193918,13.6528536 L19.0243067,15.8719349 C17.3564621,18.6139844 14.2610558,20.3666345 10.7133526,20.3666345 C4.8617625,20.3525003 0.621479816,15.9708748 0.621479816,10.2606275 Z" id="Path">
      </path>
      <path d="M34.9677696,5.22882536 L34.9677696,20.3807688 L30.6709498,20.3807688 L30.6709498,18.6139844 C29.7239533,19.7023236 28.32466,20.3666345 26.4023985,20.3666345 C22.6568155,20.3666345 19.5614091,17.0733483 19.5614091,12.8047971 C19.5614091,8.53624585 22.6568155,5.24295963 26.4023985,5.24295963 C28.32466,5.24295963 29.7239533,5.90727059 30.6709498,6.99560981 L30.6709498,5.24295963 L34.9677696,5.24295963 L34.9677696,5.22882536 Z M30.6709498,12.7906628 C30.6709498,10.6422529 29.2433879,9.29949673 27.2645894,9.29949673 C25.2857908,9.29949673 23.8582289,10.6422529 23.8582289,12.7906628 C23.8582289,14.9390727 25.2857908,16.2818289 27.2645894,16.2818289 C29.2433879,16.2818289 30.6709498,14.9390727 30.6709498,12.7906628 Z" id="Shape" fill-rule="nonzero">
      </path>
      <path d="M44.7062855,5.22882536 L44.7062855,10.133419 C42.9112325,9.85073348 40.3670629,10.5715815 40.3670629,13.4267052 L40.3670629,20.3666345 L36.0278402,20.3666345 L36.0278402,5.22882536 L40.3811971,5.22882536 L40.3811971,8.08394903 C40.9607024,6.14755327 42.8970982,5.22882536 44.7062855,5.22882536 Z" id="Path">
      </path>
      <path d="M63.6744833,10.2747618 C63.6744833,15.9850091 59.4342007,20.3666345 53.8652961,20.3666345 L45.7804904,20.3666345 L45.7804904,0.18288896 L53.8652961,0.18288896 C59.4342007,0.18288896 63.6744833,4.5645144 63.6744833,10.2747618 Z M59.2363208,10.2747618 C59.2363208,6.81186423 57.0455081,4.6210515 53.8652961,4.6210515 L50.4023985,4.6210515 L50.4023985,15.928472 L53.8652961,15.928472 C57.0313738,15.928472 59.2363208,13.7376593 59.2363208,10.2747618 Z" id="Shape" fill-rule="nonzero">
      </path>
      <path d="M72.1974515,16.5079773 C73.3705964,16.5079773 74.37413,16.0556805 74.9536353,15.4196381 L78.3882643,17.3984367 C76.988971,19.3489667 74.8688296,20.3525003 72.1409144,20.3525003 C67.2504551,20.3525003 64.2115858,17.059214 64.2115858,12.7906628 C64.2115858,8.52211158 67.3069922,5.22882536 71.8299604,5.22882536 C76.013706,5.22882536 79.1091123,8.46557447 79.1091123,12.7906628 C79.1091123,13.3984367 79.0525752,13.9638077 78.939501,14.5150444 L68.7769568,14.5150444 C69.299925,15.9991434 70.628547,16.5079773 72.1974515,16.5079773 Z M74.8405611,11.2924296 C74.3882643,9.63871935 73.0879109,9.0309455 71.8016918,9.0309455 C70.1762501,9.0309455 69.0737766,9.83659921 68.6780169,11.2924296 L74.8405611,11.2924296 Z" id="Shape" fill-rule="nonzero">
      </path>
      <polygon id="Path" points="88.7628226 20.3807688 84.32466 14.2606275 84.32466 20.3807688 80.169183 20.3807688 80.169183 0.18288896 84.32466 0.18288896 84.32466 11.2924296 88.4801371 5.22882536 93.3281936 5.22882536 88.2822572 12.5645144 93.4554021 20.3666345 88.7628226 20.3666345">
      </polygon>
      <path d="M107.844095,10.9673413 L107.844095,20.3807688 L103.688618,20.3807688 L103.688618,11.5751151 C103.688618,9.85073348 102.614413,9.05921405 101.285791,9.05921405 C99.759289,9.05921405 98.7133526,9.94967341 98.7133526,11.9143377 L98.7133526,20.3807688 L94.5578756,20.3807688 L94.5578756,0.18288896 L98.7133526,0.18288896 L98.7133526,6.92493843 C99.4624692,5.89313631 100.847628,5.22882536 102.67095,5.22882536 C105.469536,5.22882536 107.844095,7.22175822 107.844095,10.9673413 Z" id="Path">
      </path>
      <path d="M108.9183,12.7906628 C108.9183,8.52211158 112.296391,5.22882536 116.508406,5.22882536 C120.72042,5.22882536 124.098512,8.52211158 124.098512,12.7906628 C124.098512,17.059214 120.72042,20.3525003 116.508406,20.3525003 C112.296391,20.3525003 108.9183,17.059214 108.9183,12.7906628 Z M119.801692,12.7906628 C119.801692,10.7553271 118.37413,9.41257094 116.508406,9.41257094 C114.642681,9.41257094 113.215119,10.7553271 113.215119,12.7906628 C113.215119,14.8259985 114.642681,16.1687547 116.508406,16.1687547 C118.37413,16.1687547 119.801692,14.8259985 119.801692,12.7906628 Z" id="Shape" fill-rule="nonzero">
      </path>
     </g>
     <path d="M94.101,40 L93.058,38.04 L92.442,38.04 L92.442,40 L91.595,40 L91.595,35.037 L93.499,35.037 C94.458,35.037 95.053,35.702 95.053,36.542 C95.053,37.249 94.626,37.788 93.933,37.956 L95.053,40 L94.101,40 Z M92.442,37.298 L93.345,37.298 C93.863,37.298 94.199,36.997 94.199,36.542 C94.199,36.08 93.863,35.779 93.345,35.779 L92.442,35.779 L92.442,37.298 Z M96.803,40 L95.949,40 L95.949,35.037 L96.803,35.037 L96.803,40 Z M102.396,40 L101.717,40 L101.654,39.37 C101.437,39.734 100.926,40.105 100.135,40.105 C98.84,40.105 97.692,39.153 97.692,37.515 C97.692,35.884 98.903,34.932 100.191,34.932 C101.395,34.932 102.165,35.625 102.431,36.444 L101.64,36.745 C101.472,36.185 100.982,35.709 100.191,35.709 C99.386,35.709 98.546,36.283 98.546,37.515 C98.546,38.726 99.33,39.335 100.184,39.335 C101.185,39.335 101.563,38.649 101.605,38.222 L99.967,38.222 L99.967,37.487 L102.396,37.487 L102.396,40 Z M107.429,40 L106.582,40 L106.582,37.879 L104.251,37.879 L104.251,40 L103.411,40 L103.411,35.037 L104.251,35.037 L104.251,37.088 L106.582,37.088 L106.582,35.037 L107.429,35.037 L107.429,40 Z M112.182,35.828 L110.565,35.828 L110.565,40 L109.725,40 L109.725,35.828 L108.115,35.828 L108.115,35.037 L112.182,35.037 L112.182,35.828 Z M116.809,40.105 C115.472,40.105 114.303,39.139 114.303,37.522 C114.303,35.905 115.514,34.932 116.802,34.932 C118.062,34.932 118.811,35.674 119.035,36.542 L118.244,36.808 C118.097,36.206 117.635,35.723 116.802,35.723 C115.983,35.723 115.164,36.318 115.164,37.522 C115.164,38.684 115.962,39.3 116.809,39.3 C117.642,39.3 118.118,38.768 118.286,38.208 L119.056,38.46 C118.832,39.3 118.076,40.105 116.809,40.105 Z M123.13,40 L122.661,38.754 L120.561,38.754 L120.099,40 L119.21,40 L121.142,35.037 L122.115,35.037 L124.047,40 L123.13,40 Z M121.611,35.947 L120.855,37.977 L122.367,37.977 L121.611,35.947 Z M127.218,40 L126.175,38.04 L125.559,38.04 L125.559,40 L124.712,40 L124.712,35.037 L126.616,35.037 C127.575,35.037 128.17,35.702 128.17,36.542 C128.17,37.249 127.743,37.788 127.05,37.956 L128.17,40 L127.218,40 Z M125.559,37.298 L126.462,37.298 C126.98,37.298 127.316,36.997 127.316,36.542 C127.316,36.08 126.98,35.779 126.462,35.779 L125.559,35.779 L125.559,37.298 Z M128.856,39.489 C128.856,39.195 129.108,38.957 129.437,38.957 C129.808,38.957 130.074,39.251 130.074,39.699 C130.074,40.679 129.409,41.092 128.933,41.155 L128.933,40.742 C129.255,40.672 129.549,40.35 129.556,39.986 C129.528,40 129.479,40.021 129.388,40.021 C129.08,40.021 128.856,39.811 128.856,39.489 Z M135.366,40 L134.323,38.04 L133.707,38.04 L133.707,40 L132.86,40 L132.86,35.037 L134.764,35.037 C135.723,35.037 136.318,35.702 136.318,36.542 C136.318,37.249 135.891,37.788 135.198,37.956 L136.318,40 L135.366,40 Z M133.707,37.298 L134.61,37.298 C135.128,37.298 135.464,36.997 135.464,36.542 C135.464,36.08 135.128,35.779 134.61,35.779 L133.707,35.779 L133.707,37.298 Z M138.068,40 L137.214,40 L137.214,35.037 L138.068,35.037 L138.068,40 Z M143.661,40 L142.982,40 L142.919,39.37 C142.702,39.734 142.191,40.105 141.4,40.105 C140.105,40.105 138.957,39.153 138.957,37.515 C138.957,35.884 140.168,34.932 141.456,34.932 C142.66,34.932 143.43,35.625 143.696,36.444 L142.905,36.745 C142.737,36.185 142.247,35.709 141.456,35.709 C140.651,35.709 139.811,36.283 139.811,37.515 C139.811,38.726 140.595,39.335 141.449,39.335 C142.45,39.335 142.828,38.649 142.87,38.222 L141.232,38.222 L141.232,37.487 L143.661,37.487 L143.661,40 Z M148.694,40 L147.847,40 L147.847,37.879 L145.516,37.879 L145.516,40 L144.676,40 L144.676,35.037 L145.516,35.037 L145.516,37.088 L147.847,37.088 L147.847,35.037 L148.694,35.037 L148.694,40 Z M153.447,35.828 L151.83,35.828 L151.83,40 L150.99,40 L150.99,35.828 L149.38,35.828 L149.38,35.037 L153.447,35.037 L153.447,35.828 Z M160.034,40 L159.159,40 L156.709,36.241 L156.709,40 L155.869,40 L155.869,35.037 L156.94,35.037 L159.194,38.558 L159.194,35.037 L160.034,35.037 L160.034,40 Z M161.784,37.515 C161.784,38.712 162.61,39.307 163.443,39.307 C164.283,39.307 165.109,38.712 165.109,37.515 C165.109,36.318 164.283,35.723 163.443,35.723 C162.61,35.723 161.784,36.318 161.784,37.515 Z M160.923,37.515 C160.923,35.891 162.141,34.932 163.443,34.932 C164.745,34.932 165.97,35.891 165.97,37.515 C165.97,39.146 164.745,40.105 163.443,40.105 C162.141,40.105 160.923,39.146 160.923,37.515 Z M171.297,38.691 L172.27,35.037 L173.138,35.037 L171.745,40 L170.877,40 L169.673,36.248 L168.469,40 L167.608,40 L166.201,35.037 L167.083,35.037 L168.077,38.663 L169.239,35.037 L170.114,35.037 L171.297,38.691 Z" id="Right-Car,-Right-Now" fill="#24272C">
     </path>
    </g>
   </g>
  </g>
 </g>
</svg>