<svg xmlns="http://www.w3.org/2000/svg" height="110px" viewBox="0 0 554.854 173.909" xmlns:xlink="http://www.w3.org/1999/xlink">
 <g data-name="Component 16 1">
  <g data-name="Group 6158">
   <g data-name="Group 6156">
    <g data-name="Group 6155" fill="#fff">
     <path data-name="Path 10001" d="M151.888 81.626a5.341 5.341 0 105.341 5.341v-.007a5.34 5.34 0 00-5.341-5.334z">
     </path>
     <path data-name="Path 10002" d="M21.736 81.626a5.341 5.341 0 105.341 5.341v-.007a5.334 5.334 0 00-5.334-5.334z">
     </path>
     <path data-name="Path 10003" d="M95.107 78.733q-12.179-3-15.547-5.2a6.773 6.773 0 01-3.362-5.934 7.4 7.4 0 012.751-6 11.552 11.552 0 017.524-2.255q11.869 0 23.005 8.449l10.807-2.315-1.13-11.631a45.814 45.814 0 00-14.925-8.339 52.7 52.7 0 00-17.132-2.936q-13.1 0-21.837 6.6-8.762 6.615-8.759 18.786t6.923 17.866q6.9 5.705 21.837 9.245 9.428 2.332 12.614 4.587a7.139 7.139 0 013.173 6.12 7.253 7.253 0 01-2.993 6.117 13.436 13.436 0 01-8.261 2.263q-11.741 0-25.537-12.079l.059 11.631-11.377 2.387q16.234 14.954 36.49 14.954 14.062 0 22.7-7.16a23.085 23.085 0 008.627-18.66q0-11.511-6.734-17.5t-18.916-8.996z">
     </path>
    </g>
    <path data-name="Path 10004" d="M168.377 73.547L100.366 5.531a19.024 19.024 0 00-26.822 0L5.533 73.547a19.021 19.021 0 000 26.822l68.011 68a19.016 19.016 0 0026.822 0l68-68a19.023 19.023 0 00.011-26.822zM21.735 81.626a5.341 5.341 0 11-5.335 5.347v-.013a5.335 5.335 0 015.335-5.334zm42.513 20.451q13.8 12.077 25.537 12.079a13.435 13.435 0 008.261-2.263 7.253 7.253 0 002.993-6.117 7.139 7.139 0 00-3.174-6.12q-3.192-2.254-12.613-4.587-14.936-3.55-21.837-9.245-6.922-5.7-6.923-17.866t8.759-18.786q8.743-6.6 21.837-6.6a52.692 52.692 0 0117.141 2.936 45.806 45.806 0 0114.932 8.325l1.13 11.631-10.807 2.316q-11.123-8.446-23.005-8.449a11.552 11.552 0 00-7.524 2.255 7.4 7.4 0 00-2.751 6 6.778 6.778 0 003.362 5.934q3.363 2.2 15.547 5.2t18.907 8.991q6.731 6 6.734 17.5a23.084 23.084 0 01-8.627 18.66q-8.636 7.171-22.7 7.16-20.264 0-36.49-14.954l11.377-2.387zm87.639-9.781a5.341 5.341 0 115.341-5.341 5.34 5.34 0 01-5.341 5.341z" fill="#e62b51">
    </path>
   </g>
   <g data-name="Group 6157" fill="#2E054E">
    <path data-name="Path 10005" d="M256.433 70.114c-4.273-3.862-8.334-4.879-11.383-4.879-1.932 0-4.676.3-6.409 1.728a6.433 6.433 0 00-2.337 4.879 5.538 5.538 0 002.337 4.573c1.424 1.22 3.253 2.033 6.607 3.56l3.964 1.83a23.506 23.506 0 018.943 6.5 15.6 15.6 0 013.456 10.571 24.82 24.82 0 01-6.81 17.379c-5.488 5.387-12.5 6.607-19.412 6.607a26.361 26.361 0 01-13.516-3.05 37.179 37.179 0 01-9.046-7.216l8.741-11.18a23.88 23.88 0 005.7 5.387 15.417 15.417 0 007.928 2.236 14.04 14.04 0 007.521-2.136 7.885 7.885 0 002.848-6.3 6.288 6.288 0 00-1.931-4.675 15.757 15.757 0 00-5.387-3.049l-3.964-1.626a29.878 29.878 0 01-9.554-6 15.68 15.68 0 01-4.472-11.484 21.227 21.227 0 016.1-15.347c5.488-5.387 12.5-6.409 18.293-6.409a30.044 30.044 0 0119.616 6.708z">
    </path>
    <path data-name="Path 10006" d="M281.541 144.609H266.9l8.436-68.6h14.631l-.813 5.285a18.946 18.946 0 015.691-4.676 19.485 19.485 0 019.351-2.136c7.012 0 11.281 2.643 13.719 4.985 3.659 3.659 6 9.96 6 16.971 0 8.639-3.151 15.855-7.623 20.327a20.29 20.29 0 01-15.347 6.1 21.1 21.1 0 01-9.858-1.932 17.023 17.023 0 01-5.895-5.183zm8.436-54.069a12.255 12.255 0 00-3.659 9.148 10.082 10.082 0 009.578 10.563c.263.013.526.016.789.007a11.985 11.985 0 008.13-3.151 14.387 14.387 0 004.066-9.757 9.9 9.9 0 00-9.525-10.268c-.28-.011-.561-.009-.841 0a11.484 11.484 0 00-8.546 3.455z">
    </path>
    <path data-name="Path 10007" d="M351.459 77.251l-5.594 45.329h-14.632l5.59-45.329zm-5.387-25.088a8.537 8.537 0 11-8.537 8.537 8.46 8.46 0 018.381-8.537z">
    </path>
    <path data-name="Path 10008" d="M378.593 77.251l-.712 4.985a21.543 21.543 0 015.59-4.273 17.029 17.029 0 018.944-1.931c3.76 0 8.334.508 11.79 3.862 3.56 3.455 3.862 8.029 3.862 10.773a68.786 68.786 0 01-.712 8.639l-2.741 23.275h-14.636l2.439-19.616a53.763 53.763 0 00.61-7.318 7.807 7.807 0 00-1.83-5.488 7.529 7.529 0 00-5.386-1.931 8.8 8.8 0 00-6.607 2.439c-2.642 2.744-3.252 7.115-3.56 9.554l-2.643 22.36H358.37l5.59-45.329z">
    </path>
    <path data-name="Path 10009" d="M436.219 77.251l-.712 4.985a21.542 21.542 0 015.59-4.273 17.044 17.044 0 018.944-1.931c3.761 0 8.334.508 11.79 3.862 3.561 3.455 3.862 8.029 3.862 10.773a68.809 68.809 0 01-.712 8.639l-2.744 23.275h-14.635l2.439-19.616a53.763 53.763 0 00.61-7.318 7.808 7.808 0 00-1.829-5.488 7.533 7.533 0 00-5.387-1.931 8.8 8.8 0 00-6.606 2.439c-2.643 2.744-3.253 7.115-3.561 9.554l-2.642 22.36h-14.632l5.59-45.329z">
    </path>
    <path data-name="Path 10010" d="M489.678 115.543l-17.583-39.535h16.663l10.062 24.8 15.245-24.8h17.184l-43.8 68.6h-16.465z">
    </path>
   </g>
  </g>
  <g data-name="Group 6908" fill="#2E054E">
   <path data-name="Path 11871" d="M544.657 75.27a10.2 10.2 0 000 20.392 10.2 10.2 0 100-20.392zm8.228 10.2a8.228 8.228 0 11-8.228-8.225 8.235 8.235 0 018.228 8.221z">
   </path>
   <path data-name="Path 11872" d="M543.976 80.288h-2.06v9.758h2.326v-2.858l2 2.86h2.842l-2.913-3.992a2.867 2.867 0 001.647-2.7 2.956 2.956 0 00-1.272-2.48 4.348 4.348 0 00-2.57-.588zm1.573 3.083c0 .608-.439.925-1.3.941v-1.8c1.143.002 1.299.434 1.299.858z">
   </path>
  </g>
 </g>
</svg>