<svg width="104px" height="23px" viewBox="0 0 104 23" version="1.1" xmlns="http://www.w3.org/2000/svg" xmlns:xlink="http://www.w3.org/1999/xlink">
 <!-- Generator: Sketch 46.2 (44496) - http://www.bohemiancoding.com/sketch -->
 <title>
  color-logo
 </title>
 <desc>
  Created with Sketch.
 </desc>
 <defs>
  <polygon id="path-1" points="0 2.94607059 0 0.544658824 15.2967973 0.544658824 15.2967973 2.94607059 1.03818585e-15 2.94607059">
  </polygon>
  <polygon id="path-3" points="0.850074324 0.465882353 20.7958176 0.465882353 20.7958176 15.6775059 0.850074324 15.6775059">
  </polygon>
  <polygon id="path-5" points="0.862986486 7.05882353 17.9765676 7.05882353 17.9765676 0.580376471 0.862986486 0.580376471">
  </polygon>
  <polygon id="path-7" points="7.1627027 1.34654118 7.1627027 10.0373647 1.34995946 10.0373647 1.34995946 1.34654118 7.1627027 1.34654118">
  </polygon>
 </defs>
 <g id="Droid-mix" stroke="none" stroke-width="1" fill="none" fill-rule="evenodd">
  <g id="color-logo" transform="translate(0.000000, -1.000000)">
   <g id="Group-3" transform="translate(0.000000, 0.945600)">
    <mask id="mask-2" fill="white">
     <use href="#path-1">
     </use>
    </mask>
    <g id="Clip-2">
    </g>
    <path d="M-0.000567567568,2.94607059 L12.1496351,2.94607059 C12.6036892,2.94607059 13.0293649,2.77101176 13.3486216,2.45195294 L15.2967973,0.544658824 L3.02598649,0.544658824 C1.69078378,0.544658824 0.297405405,1.71218824 -0.000567567568,2.94607059" id="Fill-1" fill="#6DBE45" mask="url(#mask-2)">
    </path>
   </g>
   <path d="M1.75222297,8.20136471 L7.80816892,8.20136471 C8.26080405,8.20136471 8.68789865,8.02630588 9.00715541,7.70865882 L10.9539122,5.79995294 L4.77735811,5.79995294 C3.44215541,5.79995294 2.04877703,6.96748235 1.75222297,8.20136471" id="Fill-4" fill="#6DBE45">
   </path>
   <path d="M11.14575,17.0552471 L5.60770946,22.5484235 C5.01460135,23.1540706 4.18453378,23.5338353 3.26365541,23.5338353 C1.46162838,23.5338353 0.000141891892,22.0839529 0.000141891892,20.2938353 C0.000141891892,18.5051294 1.46162838,17.0552471 3.26365541,17.0552471 L11.14575,17.0552471" id="Fill-6" fill="#309046">
   </path>
   <g id="Group-10" transform="translate(1.418919, 0.945600)">
    <mask id="mask-4" fill="white">
     <use xlink:href="#path-3">
     </use>
    </mask>
    <g id="Clip-9">
    </g>
    <path d="M17.5308851,0.465741176 C16.6156824,0.465741176 15.7373716,0.851152941 15.1201419,1.52174118 L0.850074324,15.6775059 C1.16791216,15.5913882 1.50135811,15.5448 1.84473649,15.5448 L10.217777,15.5448 L19.8394662,5.99562353 C20.4566959,5.38432941 20.7958176,4.57115294 20.7958176,3.70574118 C20.7958176,1.91844706 19.3314932,0.465741176 17.5308851,0.465741176" id="Fill-8" fill="#6CB845" mask="url(#mask-4)">
    </path>
   </g>
   <g id="Group-13" transform="translate(4.256757, 16.475012)">
    <mask id="mask-6" fill="white">
     <use xlink:href="#path-5">
     </use>
    </mask>
    <g id="Clip-12">
    </g>
    <path d="M7.23677027,0.924847059 L1.69872973,6.41802353 C1.69872973,6.41802353 1.13967568,6.97990588 0.862986486,7.05896471 L17.9765676,7.05896471 C17.6445405,3.40814118 14.5413649,0.580376471 10.7783919,0.580376471 L8.47548649,0.580376471 L7.58298649,0.580376471 L7.23677027,0.924847059 Z" id="Fill-11" fill="#6DBE45" mask="url(#mask-6)">
    </path>
   </g>
   <path d="M44.82975,9.58150588 C44.82975,10.9523294 45.7946149,11.9109176 47.0844122,11.9109176 C48.3727905,11.9109176 49.3475878,10.9523294 49.3475878,9.58150588 C49.3475878,8.21068235 48.3727905,7.25209412 47.0844122,7.25209412 C45.7946149,7.25209412 44.82975,8.21068235 44.82975,9.58150588 M51.6888041,9.58150588 C51.6888041,12.1297412 49.7321149,14.0313882 47.0844122,14.0313882 C44.4438041,14.0313882 42.4956284,12.1297412 42.4956284,9.58150588 C42.4956284,7.03327059 44.4438041,5.13162353 47.0844122,5.13162353 C49.7321149,5.13162353 51.6888041,7.03327059 51.6888041,9.58150588" id="Fill-14" fill="#424143">
   </path>
   <path d="M54.9423851,9.58150588 C54.9423851,10.9523294 55.90725,11.9109176 57.1956284,11.9109176 C58.4854257,11.9109176 59.4588041,10.9523294 59.4588041,9.58150588 C59.4588041,8.21068235 58.4854257,7.25209412 57.1956284,7.25209412 C55.90725,7.25209412 54.9423851,8.21068235 54.9423851,9.58150588 M61.8000203,9.58150588 C61.8000203,12.1297412 59.84475,14.0313882 57.1956284,14.0313882 C54.5564392,14.0313882 52.6082635,12.1297412 52.6082635,9.58150588 C52.6082635,7.03327059 54.5564392,5.13162353 57.1956284,5.13162353 C59.84475,5.13162353 61.8000203,7.03327059 61.8000203,9.58150588" id="Fill-16" fill="#424143">
   </path>
   <path d="M77.0173581,8.43021176 L77.0173581,13.8132706 L75.6253986,13.8132706 C75.1344527,13.8132706 74.7371554,13.4179765 74.7371554,12.9309176 L74.7371554,9.16291765 C74.7371554,7.94032941 74.11425,7.26974118 73.0798581,7.26974118 C72.0965473,7.26974118 71.2806689,7.90644706 71.2806689,9.17985882 L71.2806689,13.8132706 L69.8801959,13.8132706 C69.38925,13.8132706 68.9919527,13.4179765 68.9919527,12.9309176 L68.9919527,9.16291765 C68.9919527,7.94032941 68.3775608,7.26974118 67.3346554,7.26974118 C66.3513446,7.26974118 65.5354662,7.90644706 65.5354662,9.17985882 L65.5354662,13.8132706 L64.1349932,13.8132706 C63.6440473,13.8132706 63.24675,13.4179765 63.24675,12.9309176 L63.24675,5.35821176 L64.5862095,5.35821176 C65.0771554,5.35821176 65.4744527,5.75350588 65.4744527,6.24056471 L65.4744527,6.35209412 C66.0803311,5.45421176 67.009723,5.13091765 67.9745878,5.13091765 C69.2019527,5.13091765 70.2108041,5.68150588 70.7797905,6.57938824 C71.4381689,5.50644706 72.5534392,5.13091765 73.6672905,5.13091765 C75.6665473,5.13091765 77.0173581,6.46503529 77.0173581,8.43021176" id="Fill-18" fill="#424143">
   </path>
   <path d="M86.3304324,6.72762353 L84.6816486,8.09844706 C84.1651622,7.54785882 83.6117838,7.25138824 82.8668514,7.25138824 C81.6820541,7.25138824 80.7356351,8.17609412 80.7356351,9.5808 C80.7356351,10.9939765 81.6735405,11.9116235 82.8569189,11.9116235 C83.5933378,11.9116235 84.2261757,11.5798588 84.7071892,11.0560941 L86.3389459,12.4438588 C85.5400946,13.4645647 84.3496216,14.0320941 82.9278649,14.0320941 C80.2163108,14.0320941 78.4015135,12.1473882 78.4015135,9.5808 C78.4015135,7.02409412 80.2163108,5.13091765 82.9278649,5.13091765 C84.3496216,5.13091765 85.550027,5.70691765 86.3304324,6.72762353" id="Fill-20" fill="#424143">
   </path>
   <path d="M89.2070068,9.58150588 C89.2070068,10.8732706 90.0583581,11.9109176 91.3992365,11.9109176 C92.7060608,11.9109176 93.5928851,10.9156235 93.5928851,9.58150588 C93.5928851,8.24738824 92.7060608,7.25209412 91.3992365,7.25209412 C90.0583581,7.25209412 89.2070068,8.28974118 89.2070068,9.58150588 L89.2070068,9.58150588 Z M95.7581554,13.8139765 L94.4101824,13.8139765 C93.9192365,13.8139765 93.5219392,13.4186824 93.5219392,12.9302118 L93.5219392,12.8808 C92.9685608,13.5598588 92.1441689,14.0313882 90.9778176,14.0313882 C88.6366014,14.0313882 86.8657905,12.1212706 86.8657905,9.58150588 C86.8657905,7.04174118 88.6366014,5.13162353 90.9778176,5.13162353 C92.1441689,5.13162353 92.9614662,5.60315294 93.5219392,6.29209412 L93.5219392,5.35891765 L95.7581554,5.35891765 L95.7581554,13.8139765 Z" id="Fill-22" fill="#424143">
   </path>
   <g id="Group-26" transform="translate(96.486486, 3.769129)">
    <mask id="mask-8" fill="white">
     <use xlink:href="#path-7">
     </use>
    </mask>
    <g id="Clip-25">
    </g>
    <path d="M7.16327027,1.53007059 L6.82131081,3.79312941 C6.44245946,3.62512941 5.89759459,3.52065882 5.43360811,3.52065882 C4.37083784,3.52065882 3.64293243,4.16724706 3.64293243,5.42512941 L3.64293243,10.0373647 L2.23962162,10.0373647 C1.75009459,10.0373647 1.34995946,9.64207059 1.34995946,9.15218824 L1.34995946,1.57242353 L2.68374324,1.57242353 C3.17327027,1.57242353 3.57198649,1.96912941 3.57198649,2.4576 L3.57198649,2.49995294 C4.10833784,1.70371765 4.92421622,1.34654118 5.96854054,1.34654118 C6.46090541,1.34654118 6.84685135,1.41571765 7.16327027,1.53007059" id="Fill-24" fill="#424143" mask="url(#mask-8)">
    </path>
   </g>
   <path d="M41.7411892,1.59331765 L34.3883514,1.59614118 C33.1439595,1.59614118 32.1351081,2.59990588 32.1351081,3.83943529 L38.4947027,3.83943529 L31.5547703,12.6248471 C31.1759189,13.1076706 31.5207162,13.8135529 32.1351081,13.8135529 L41.7482838,13.8135529 C41.7482838,12.5740235 40.7394324,11.5702588 39.4936216,11.5702588 L35.3716622,11.5702588 L42.3186892,2.77637647 C42.6989595,2.29637647 42.3555811,1.59331765 41.7411892,1.59331765" id="Fill-27" fill="#424143">
   </path>
   <path d="M37.9235878,21.8295529 C37.81575,21.5034353 37.693723,21.1519059 37.5546689,20.7735529 C37.4170338,20.3966118 37.2694662,20.0196706 37.1148041,19.6427294 C36.958723,19.2657882 36.7983851,18.8987294 36.6323716,18.5415529 C36.4663581,18.1829647 36.2975068,17.8568471 36.1272365,17.5575529 L35.0999392,21.8295529 L34.0485203,21.8295529 L35.4560878,15.9777882 L36.3145338,15.9777882 C36.4734527,16.2319059 36.6380473,16.5213176 36.8111554,16.8488471 C36.9828446,17.1749647 37.150277,17.5166118 37.3134527,17.8737882 C37.4780473,18.2309647 37.6355473,18.5895529 37.7873716,18.9509647 C37.9406149,19.3109647 38.0725743,19.6512 38.1875068,19.9730824 L39.1310878,15.9777882 L40.1910203,15.9777882 L38.7820338,21.8295529 L37.9235878,21.8295529 Z" id="Fill-29" fill="#424143">
   </path>
   <path d="M42.7789865,18.1403294 C42.6101351,18.1403294 42.4483784,18.1728 42.2951351,18.2405647 C42.1433108,18.3083294 42.0070946,18.4029176 41.8879054,18.5200941 C41.7687162,18.6386824 41.6665541,18.7770353 41.5785811,18.9365647 C41.4906081,19.0989176 41.4267568,19.2711529 41.3884459,19.4575059 C42.0666892,19.4349176 42.560473,19.3530353 42.8683784,19.2118588 C43.1762838,19.0706824 43.3309459,18.8603294 43.3309459,18.5793882 C43.3309459,18.4664471 43.2897973,18.3648 43.2075,18.2758588 C43.1252027,18.1840941 42.9833108,18.1403294 42.7789865,18.1403294 M40.3100676,20.2325647 C40.3100676,19.8570353 40.3710811,19.4928 40.4931081,19.1398588 C40.6151351,18.7883294 40.7896622,18.4763294 41.0181081,18.2038588 C41.247973,17.9313882 41.5232432,17.7125647 41.8467568,17.5488 C42.1674324,17.3864471 42.5306757,17.3045647 42.9308108,17.3045647 C43.3621622,17.3045647 43.6956081,17.4132706 43.9325676,17.6335059 C44.1709459,17.8537412 44.2887162,18.1346824 44.2887162,18.4777412 C44.2887162,18.8320941 44.2021622,19.1186824 44.0262162,19.3389176 C43.8516892,19.5591529 43.6246622,19.7299765 43.3422973,19.8542118 C43.0627703,19.9784471 42.7477703,20.0617412 42.3944595,20.1083294 C42.0397297,20.1520941 41.6821622,20.1803294 41.3203378,20.1916235 C41.3146622,20.2029176 41.3118243,20.2142118 41.3118243,20.2255059 L41.3118243,20.3102118 C41.3118243,20.8212706 41.6353378,21.0782118 42.2866216,21.0782118 C42.6725676,21.0782118 43.0556757,20.9991529 43.4416216,20.8410353 L43.5253378,21.6697412 C43.3905405,21.7304471 43.1975676,21.7925647 42.9492568,21.8546824 C42.699527,21.9168 42.4171622,21.9478588 42.0993243,21.9478588 C41.7843243,21.9478588 41.5118919,21.9026824 41.2848649,21.8137412 C41.0592568,21.7219765 40.8733784,21.5991529 40.7300676,21.4410353 C40.5853378,21.2843294 40.4803378,21.1022118 40.4122297,20.8960941 C40.3441216,20.6913882 40.3100676,20.4697412 40.3100676,20.2325647" id="Fill-31" fill="#424143">
   </path>
   <path d="M45.5905743,21.8295529 C45.4458446,21.2549647 45.3181419,20.5900235 45.2017905,19.8333176 C45.0868581,19.0766118 45.0116554,18.2704941 44.9761824,17.4135529 L46.0304392,17.4135529 C46.0346959,17.6620235 46.0446284,17.9288471 46.0588176,18.2154353 C46.0744257,18.5034353 46.0928716,18.7914353 46.1155743,19.0822588 C46.138277,19.3716706 46.1652365,19.6512 46.1978716,19.9208471 C46.2290878,20.1919059 46.2659797,20.4361412 46.3057095,20.6563765 C46.4518581,20.4643765 46.6121959,20.2342588 46.7810473,19.9688471 C46.9513176,19.7006118 47.1159122,19.4196706 47.2748311,19.1232 C47.43375,18.8281412 47.5770608,18.5316706 47.7090203,18.2323765 C47.8395608,17.9344941 47.9431419,17.6620235 48.0240203,17.4135529 L49.0938851,17.4135529 C48.9576689,17.8017882 48.7873986,18.2027294 48.5816554,18.6135529 C48.37875,19.0243765 48.1588176,19.4239059 47.9204392,19.8107294 C47.6820608,20.2003765 47.4365878,20.5674353 47.1840203,20.9175529 C46.9314527,21.2676706 46.6916554,21.5697882 46.4646284,21.8295529 L45.5905743,21.8295529 Z" id="Fill-33" fill="#424143">
   </path>
   <path d="M51.5530135,18.1403294 C51.3841622,18.1403294 51.2224054,18.1728 51.0691622,18.2405647 C50.9173378,18.3083294 50.7811216,18.4029176 50.6619324,18.5200941 C50.5427432,18.6386824 50.4405811,18.7770353 50.3526081,18.9365647 C50.2646351,19.0989176 50.2007838,19.2711529 50.162473,19.4575059 C50.8407162,19.4349176 51.3345,19.3530353 51.6424054,19.2118588 C51.9503108,19.0706824 52.104973,18.8603294 52.104973,18.5793882 C52.104973,18.4664471 52.0638243,18.3648 51.981527,18.2758588 C51.8992297,18.1840941 51.7573378,18.1403294 51.5530135,18.1403294 M49.0840946,20.2325647 C49.0840946,19.8570353 49.1451081,19.4928 49.2671351,19.1398588 C49.3877432,18.7883294 49.5636892,18.4763294 49.7921351,18.2038588 C50.022,17.9313882 50.2972703,17.7125647 50.6207838,17.5488 C50.9414595,17.3864471 51.3047027,17.3045647 51.7048378,17.3045647 C52.1361892,17.3045647 52.4696351,17.4132706 52.7065946,17.6335059 C52.9435541,17.8537412 53.0627432,18.1346824 53.0627432,18.4777412 C53.0627432,18.8320941 52.9761892,19.1186824 52.8002432,19.3389176 C52.6257162,19.5591529 52.3986892,19.7299765 52.1163243,19.8542118 C51.8367973,19.9784471 51.5217973,20.0617412 51.1684865,20.1083294 C50.8137568,20.1520941 50.4561892,20.1803294 50.0943649,20.1916235 C50.0886892,20.2029176 50.0858514,20.2142118 50.0858514,20.2255059 L50.0858514,20.3102118 C50.0858514,20.8212706 50.4093649,21.0782118 51.0606486,21.0782118 C51.4465946,21.0782118 51.8297027,20.9991529 52.2156486,20.8410353 L52.2993649,21.6697412 C52.1645676,21.7304471 51.9715946,21.7925647 51.7218649,21.8546824 C51.4735541,21.9168 51.1911892,21.9478588 50.8733514,21.9478588 C50.5569324,21.9478588 50.2845,21.9026824 50.0588919,21.8137412 C49.8332838,21.7219765 49.6474054,21.5991529 49.5040946,21.4410353 C49.3593649,21.2843294 49.2543649,21.1022118 49.1862568,20.8960941 C49.1181486,20.6913882 49.0840946,20.4697412 49.0840946,20.2325647" id="Fill-35" fill="#424143">
   </path>
   <path d="M56.6023784,18.3168 C56.4888649,18.2786824 56.3668378,18.2462118 56.2362973,18.2250353 C56.1043378,18.2024471 55.9525135,18.1897412 55.7765676,18.1897412 C55.6800811,18.1897412 55.5779189,18.1982118 55.4700811,18.2123294 C55.3622432,18.2264471 55.2714324,18.2433882 55.1976486,18.2673882 L54.3448784,21.8292706 L53.319,21.8292706 L54.3363649,17.6165647 C54.5733243,17.5375059 54.8315676,17.4683294 55.1082568,17.4090353 C55.3863649,17.3497412 55.6857568,17.3215059 56.0078514,17.3215059 C56.0759595,17.3215059 56.1525811,17.3257412 56.2362973,17.3342118 C56.3228514,17.3426824 56.4051486,17.3511529 56.4874459,17.3624471 C56.5697432,17.3751529 56.6449459,17.3892706 56.7173108,17.4048 C56.7868378,17.4217412 56.8478514,17.4429176 56.8989324,17.4640941 L56.6023784,18.3168 Z" id="Fill-37" fill="#424143">
   </path>
   <path d="M60.2592162,21.0520941 C60.4110405,21.0520941 60.5628649,21.0379765 60.7132703,21.0111529 C60.8636757,20.9815059 60.998473,20.9349176 61.1205,20.8671529 C61.2411081,20.7993882 61.3404324,20.7076235 61.4127973,20.5932706 C61.4865811,20.4775059 61.5248919,20.3320941 61.5248919,20.1570353 C61.5248919,20.0271529 61.4950946,19.9170353 61.4383378,19.8238588 C61.3815811,19.7306824 61.3049595,19.6488 61.2098919,19.5753882 C61.1148243,19.5019765 61.0041486,19.4342118 60.8821216,19.3692706 C60.7615135,19.3043294 60.6323919,19.2351529 60.4961757,19.1617412 C60.3486081,19.0883294 60.2095541,19.0050353 60.0761757,18.9118588 C59.9427973,18.8200941 59.8264459,18.7142118 59.7242838,18.5956235 C59.6235405,18.4784471 59.5426622,18.3400941 59.4830676,18.1819765 C59.423473,18.0238588 59.3936757,17.8389176 59.3936757,17.6243294 C59.3936757,17.3659765 59.4433378,17.1288 59.5426622,16.9113882 C59.6405676,16.6953882 59.7881351,16.5076235 59.9839459,16.3495059 C60.1783378,16.1928 60.4181351,16.0685647 60.7033378,15.9782118 C60.9913784,15.8892706 61.3219865,15.8440941 61.7022568,15.8440941 C61.8782027,15.8440941 62.0456351,15.8568 62.2073919,15.8864471 C62.3677297,15.9132706 62.5195541,15.9499765 62.660027,15.9909176 C62.8019189,16.0332706 62.9267838,16.0812706 63.0332027,16.1306824 C63.1410405,16.1815059 63.2261757,16.2295059 63.2886081,16.2732706 L62.8217838,17.0836235 C62.7040135,16.9890353 62.5365811,16.9071529 62.3251622,16.8408 C62.1137432,16.7730353 61.8810405,16.7377412 61.6256351,16.7377412 C61.4723919,16.7377412 61.3276622,16.7532706 61.1886081,16.7857412 C61.0495541,16.8153882 60.9289459,16.8633882 60.822527,16.9283294 C60.7189459,16.9932706 60.6380676,17.0779765 60.578473,17.1824471 C60.5188784,17.2855059 60.4876622,17.4083294 60.4876622,17.5495059 C60.4876622,17.6779765 60.5103649,17.7866824 60.5515135,17.8699765 C60.5940811,17.9546824 60.6536757,18.0280941 60.7302973,18.0930353 C60.8069189,18.1579765 60.8948919,18.2172706 60.998473,18.2709176 C61.0992162,18.3245647 61.2098919,18.3838588 61.3290811,18.4516235 C61.5036081,18.5490353 61.6696216,18.6436235 61.8257027,18.7396235 C61.9803649,18.8356235 62.118,18.9457412 62.2371892,19.0685647 C62.3563784,19.1928 62.450027,19.3339765 62.520973,19.4949176 C62.5919189,19.6558588 62.6273919,19.8478588 62.6273919,20.0737412 C62.6273919,20.3885647 62.5677973,20.6652706 62.4486081,20.9010353 C62.3294189,21.1382118 62.1634054,21.3330353 61.9477297,21.4883294 C61.7320541,21.6422118 61.4780676,21.7593882 61.1843514,21.8384471 C60.8892162,21.9160941 60.5685405,21.9570353 60.2166486,21.9570353 C59.9853649,21.9570353 59.7711081,21.9386824 59.5767162,21.9048 C59.3809054,21.8709176 59.2077973,21.8299765 59.0545541,21.7791529 C58.9013108,21.7283294 58.7693514,21.6746824 58.6600946,21.6182118 C58.5494189,21.5617412 58.4628649,21.5109176 58.4004324,21.4671529 L58.8757703,20.6299765 C58.932527,20.6695059 59.0077297,20.7160941 59.1013784,20.7655059 C59.195027,20.8163294 59.300027,20.8629176 59.4192162,20.9052706 C59.5384054,20.9476235 59.667527,20.9815059 59.8094189,21.0111529 C59.9498919,21.0379765 60.1017162,21.0520941 60.2592162,21.0520941" id="Fill-39" fill="#424143">
   </path>
   <path d="M64.4175,16.2487059 L65.4859459,16.0807059 L65.1610135,17.4134118 L66.6154054,17.4134118 L66.4110811,18.2576471 L64.9566892,18.2576471 L64.5324324,20.0054118 C64.505473,20.1296471 64.487027,20.2327059 64.4756757,20.3145882 C64.4643243,20.3964706 64.4586486,20.4698824 64.4586486,20.5376471 C64.4586486,20.6054118 64.4671622,20.6717647 64.4813514,20.7367059 C64.4955405,20.8016471 64.5225,20.8581176 64.5650676,20.9047059 C64.6076351,20.9527059 64.6700676,20.9922353 64.7523649,21.0232941 C64.8346622,21.0529412 64.9453378,21.0698824 65.0886486,21.0698824 C65.240473,21.0698824 65.3880405,21.0487059 65.5285135,21.0105882 C65.6704054,20.9710588 65.7952703,20.9287059 65.9016892,20.8835294 L65.9797297,21.7023529 C65.8491892,21.7588235 65.6845946,21.8124706 65.4859459,21.8632941 C65.2872973,21.9141176 65.0560135,21.9381176 64.7906757,21.9381176 C64.3039865,21.9381176 63.9563514,21.8336471 63.7463514,21.6232941 C63.5377703,21.4115294 63.4327703,21.1235294 63.4327703,20.7564706 C63.4327703,20.6223529 63.4427027,20.4825882 63.4625676,20.3385882 C63.4824324,20.196 63.5108108,20.0435294 63.5519595,19.8783529 L64.4175,16.2487059 Z" id="Fill-41" fill="#424143">
   </path>
   <path d="M69.1938649,18.1650353 C68.9739324,18.1650353 68.7767027,18.2285647 68.6050135,18.3556235 C68.4319054,18.4826824 68.2871757,18.6436235 68.1708243,18.8412706 C68.0558919,19.0375059 67.9665,19.2535059 67.9054865,19.4864471 C67.8430541,19.7208 67.8104189,19.9466824 67.8104189,20.1655059 C67.8104189,20.4478588 67.8643378,20.6695059 67.9735946,20.8332706 C68.0800135,20.9970353 68.2701486,21.0775059 68.5411622,21.0775059 C68.7610946,21.0775059 68.9583243,21.0153882 69.1300135,20.8883294 C69.3031216,20.7612706 69.4478514,20.6017412 69.5642027,20.4069176 C69.6791351,20.2120941 69.768527,19.9975059 69.8309595,19.7617412 C69.8933919,19.5245647 69.9246081,19.3000941 69.9246081,19.0855059 C69.9246081,18.8045647 69.8706892,18.5800941 69.7628514,18.4149176 C69.6550135,18.2483294 69.4648784,18.1650353 69.1938649,18.1650353 M68.4134595,21.9485647 C67.8870405,21.9485647 67.4854865,21.7918588 67.2087973,21.4840941 C66.9306892,21.1735059 66.7930541,20.7655059 66.7930541,20.2586824 C66.7930541,19.9325647 66.8441351,19.5951529 66.9462973,19.2464471 C67.0470405,18.8977412 67.2031216,18.5786824 67.4117027,18.2920941 C67.6217027,18.0055059 67.8842027,17.7683294 68.2020405,17.5833882 C68.5184595,17.3970353 68.8916351,17.3052706 69.3215676,17.3052706 C69.8479865,17.3052706 70.2495405,17.4577412 70.5262297,17.7640941 C70.8043378,18.0718588 70.941973,18.4784471 70.941973,18.9838588 C70.941973,19.3156235 70.8923108,19.6572706 70.7944054,20.0059765 C70.6950811,20.3546824 70.5418378,20.6723294 70.3360946,20.9589176 C70.1289324,21.2469176 69.8664324,21.4840941 69.5471757,21.6690353 C69.2265,21.8539765 68.8490676,21.9485647 68.4134595,21.9485647" id="Fill-43" fill="#424143">
   </path>
   <path d="M72.5860743,21.0354353 C72.6428311,21.0467294 72.7024257,21.0537882 72.7648581,21.0580235 C72.8272905,21.0608471 72.889723,21.0622588 72.9521554,21.0622588 C73.2231689,21.0622588 73.4686419,21.0086118 73.6857365,20.9041412 C73.90425,20.8010824 74.0901284,20.6599059 74.2433716,20.4820235 C74.3951959,20.3055529 74.5129662,20.0966118 74.5952635,19.8580235 C74.6775608,19.6180235 74.7187095,19.3639059 74.7187095,19.0942588 C74.7187095,18.9700235 74.7045203,18.8528471 74.6761419,18.7441412 C74.6477635,18.6340235 74.6009392,18.5366118 74.5356689,18.4519059 C74.4703986,18.3672 74.3838446,18.3008471 74.2731689,18.2486118 C74.1624932,18.1992 74.0234392,18.1737882 73.8531689,18.1737882 C73.7396554,18.1737882 73.6318176,18.1808471 73.5310743,18.1949647 C73.4289122,18.2090824 73.3381014,18.2274353 73.2600608,18.2486118 L72.5860743,21.0354353 Z M75.7460068,19.0010824 C75.7460068,19.4006118 75.6821554,19.7761412 75.5544527,20.1276706 C75.42675,20.4792 75.2408716,20.7883765 74.9939797,21.0523765 C74.7470878,21.3163765 74.4476959,21.5267294 74.0943851,21.6820235 C73.7410743,21.8359059 73.3352635,21.9135529 72.8769527,21.9135529 C72.7974932,21.9135529 72.7180338,21.9093176 72.6357365,21.9008471 C72.5534392,21.8923765 72.4725608,21.8839059 72.3931014,21.8712 L72.0185068,23.3916706 L70.9940473,23.3916706 L72.3931014,17.5921412 C72.6243851,17.5060235 72.8840473,17.4382588 73.16925,17.3888471 C73.4544527,17.3380235 73.7424932,17.3126118 74.0319527,17.3126118 C74.3256689,17.3126118 74.5810743,17.3563765 74.7995878,17.4439059 C75.0166824,17.5314353 75.1954662,17.6514353 75.3345203,17.8024941 C75.4721554,17.9535529 75.5743176,18.1328471 75.6424257,18.3389647 C75.7105338,18.5436706 75.7460068,18.7653176 75.7460068,19.0010824 L75.7460068,19.0010824 Z" id="Fill-45" fill="#424143">
   </path>
   <polygon id="Fill-47" fill="#424143" points="82.092973 20.9347765 81.8801351 21.8298353 78.2065541 21.8298353 79.6141216 15.9780706 80.6839865 15.9780706 79.4906757 20.9347765">
   </polygon>
   <path d="M84.4930743,16.7463529 C84.34125,16.7463529 84.2078716,16.7025882 84.095777,16.6108235 C83.9822635,16.5218824 83.9255068,16.3863529 83.9255068,16.2056471 C83.9255068,15.9981176 83.9964527,15.8272941 84.1411824,15.6917647 C84.2859122,15.5562353 84.4519257,15.4884706 84.639223,15.4884706 C84.7910473,15.4884706 84.9258446,15.5364706 85.0421959,15.6282353 C85.1571284,15.72 85.2153041,15.8569412 85.2153041,16.0376471 C85.2153041,16.2465882 85.1415203,16.4174118 84.9953716,16.5472941 C84.8478041,16.68 84.6803716,16.7463529 84.4930743,16.7463529 L84.4930743,16.7463529 Z M83.7296959,21.8301176 L82.7023986,21.8301176 L83.7722635,17.4141176 L84.7995608,17.4141176 L83.7296959,21.8301176 Z" id="Fill-49" fill="#424143">
   </path>
   <path d="M86.0574324,21.8295529 C85.9127027,21.2549647 85.785,20.5900235 85.6700676,19.8333176 C85.5537162,19.0766118 85.4785135,18.2704941 85.4430405,17.4135529 L86.4972973,17.4135529 C86.5015541,17.6620235 86.5114865,17.9288471 86.5256757,18.2154353 C86.5412838,18.5034353 86.5597297,18.7914353 86.5824324,19.0822588 C86.6065541,19.3716706 86.6320946,19.6512 86.6647297,19.9208471 C86.6959459,20.1919059 86.7328378,20.4361412 86.7725676,20.6563765 C86.9187162,20.4643765 87.0790541,20.2342588 87.2493243,19.9688471 C87.4181757,19.7006118 87.5827703,19.4196706 87.7416892,19.1232 C87.9006081,18.8281412 88.0439189,18.5316706 88.1758784,18.2323765 C88.3064189,17.9344941 88.41,17.6620235 88.4908784,17.4135529 L89.5607432,17.4135529 C89.424527,17.8017882 89.2542568,18.2027294 89.0499324,18.6135529 C88.8456081,19.0243765 88.6256757,19.4239059 88.3872973,19.8107294 C88.1489189,20.2003765 87.9034459,20.5674353 87.6508784,20.9175529 C87.3983108,21.2676706 87.1585135,21.5697882 86.9314865,21.8295529 L86.0574324,21.8295529 Z" id="Fill-51" fill="#424143">
   </path>
   <path d="M91.1289324,16.7463529 C90.9771081,16.7463529 90.8437297,16.7025882 90.7316351,16.6108235 C90.6181216,16.5218824 90.5613649,16.3863529 90.5613649,16.2056471 C90.5613649,15.9981176 90.6323108,15.8272941 90.7770405,15.6917647 C90.9217703,15.5562353 91.0877838,15.4884706 91.2736622,15.4884706 C91.4269054,15.4884706 91.5617027,15.5364706 91.6766351,15.6282353 C91.7929865,15.72 91.8511622,15.8569412 91.8511622,16.0376471 C91.8511622,16.2465882 91.7773784,16.4174118 91.6312297,16.5472941 C91.4822432,16.68 91.3162297,16.7463529 91.1289324,16.7463529 L91.1289324,16.7463529 Z M90.3655541,21.8301176 L89.3382568,21.8301176 L90.4081216,17.4141176 L91.4354189,17.4141176 L90.3655541,21.8301176 Z" id="Fill-53" fill="#424143">
   </path>
   <path d="M92.6656216,17.5997647 C92.8912297,17.532 93.1508919,17.4684706 93.4417703,17.4091765 C93.7326486,17.3498824 94.0519054,17.3216471 94.3967027,17.3216471 C94.916027,17.3216471 95.2977162,17.4487059 95.5417703,17.7 C95.7844054,17.9541176 95.9064324,18.2943529 95.9064324,18.7221176 C95.9064324,18.8407059 95.8965,18.9663529 95.8780541,19.0990588 C95.8567703,19.2303529 95.8326486,19.3672941 95.8042703,19.5084706 L95.2437973,21.8294118 L94.2193378,21.8294118 L94.7443378,19.6171765 C94.7712973,19.4943529 94.8010946,19.3672941 94.8280541,19.2374118 C94.8578514,19.1075294 94.8748784,18.9832941 94.8805541,18.8647059 C94.8848108,18.6698824 94.8379865,18.5061176 94.7400811,18.3762353 C94.6421757,18.2463529 94.4477838,18.1814118 94.1583243,18.1814118 C93.9156892,18.1814118 93.7056892,18.2082353 93.5297432,18.2576471 L92.6798108,21.8294118 L91.6468378,21.8294118 L92.6656216,17.5997647 Z" id="Fill-55" fill="#424143">
   </path>
   <path d="M98.4174932,20.7652235 C98.5678986,20.7652235 98.7268176,20.7369882 98.8871554,20.6805176 C99.0474932,20.6240471 99.1808716,20.5548706 99.2887095,20.4701647 L99.8364122,18.2155765 C99.7058716,18.1873412 99.5781689,18.1732235 99.4533041,18.1732235 C99.1936419,18.1732235 98.9581014,18.2212235 98.7452635,18.3172235 C98.5324257,18.4132235 98.3508041,18.5431059 98.1989797,18.7054588 C98.0443176,18.8678118 97.9251284,19.0584 97.8414122,19.2744 C97.756277,19.4932235 97.7137095,19.7247529 97.7137095,19.9718118 C97.7137095,20.2188706 97.7676284,20.4136941 97.8740473,20.5548706 C97.9818851,20.6946353 98.1620878,20.7652235 98.4174932,20.7652235 M97.6725608,22.5567529 C98.0911419,22.5567529 98.404723,22.4593412 98.6189797,22.2673412 C98.8303986,22.0767529 98.9737095,21.8155765 99.0460743,21.4838118 L99.0716149,21.3652235 C98.9581014,21.4216941 98.8233041,21.4739294 98.6643851,21.5205176 C98.5054662,21.5685176 98.3380338,21.5925176 98.1635068,21.5925176 C97.6668851,21.5925176 97.2965473,21.4584 97.05675,21.1915765 C96.8155338,20.9247529 96.6949257,20.5675765 96.6949257,20.1242824 C96.6949257,19.7191059 96.7672905,19.3435765 96.9077635,19.0005176 C97.0496554,18.6574588 97.249723,18.3609882 97.5051284,18.1096941 C97.7633716,17.8598118 98.0741149,17.6649882 98.4359392,17.5238118 C98.7977635,17.3826353 99.1993176,17.3134588 99.6391824,17.3134588 C99.8548581,17.3134588 100.086142,17.3360471 100.333034,17.3840471 C100.577088,17.4320471 100.799858,17.5096941 100.997088,17.6169882 L100.098912,21.3652235 C100.019453,21.6969882 99.9201284,21.9906353 99.7981014,22.2475765 C99.6760743,22.5031059 99.5157365,22.7176941 99.3185068,22.8885176 C99.1198581,23.0607529 98.8743851,23.1920471 98.5835068,23.2809882 C98.2926284,23.3713412 97.9407365,23.4165176 97.5278311,23.4165176 C97.2270203,23.4165176 96.9574257,23.3840471 96.7176284,23.3205176 C96.4764122,23.2555765 96.2649932,23.1751059 96.0833716,23.0791059 L96.4494527,22.2518118 C96.6026959,22.3407529 96.7800608,22.4141647 96.9801284,22.4706353 C97.1801959,22.5271059 97.4114797,22.5567529 97.6725608,22.5567529" id="Fill-57" fill="#424143">
   </path>
  </g>
 </g>
</svg>